# xmcd
#
# Track frame offsets: 
#        150
#        21073
#        54618
#        70020
#        92133
#        115405
#        137833
#        158268
#        174350
#        182518
#        200073
#        213525
#        227185
#        238485
#        250303
#
# Disc length: 3450 seconds
#
# Revision: 5
# Processed by: cddbd v1.5.2PL0 Copyright (c) Steve Scherf et al.
# Submitted via: ExactAudioCopy v1.0b3
#
DISCID=d40d780f
DTITLE=Clarence Gatemouth Brown - The Best Of Clarence "Gatemouth" Bro
DTITLE=wn, A Blues Legend
DYEAR=1995
DGENRE=Blues
TTITLE0=Bogalusa Boogie Man
TTITLE1=The Drifter
TTITLE2=Loup Garou
TTITLE3=Jelly, Jelly
TTITLE4=Gate's On The Heat
TTITLE5=Please Mr. Nixon
TTITLE6=Goto My Mojo Working
TTITLE7=Cajun Blues
TTITLE8="1:49 of Gate showing how not to start a take on time...."
TTITLE9=Gate's Express
TTITLE10=Breaux Bridge Rag
TTITLE11=Louisian'
TTITLE12=Rosalie
TTITLE13=Birmingham
TTITLE14=After The Band Is Gone
EXTD=YEAR: 1995
EXTT0=
EXTT1=
EXTT2=
EXTT3=
EXTT4=
EXTT5=
EXTT6=
EXTT7=
EXTT8=
EXTT9=
EXTT10=
EXTT11=
EXTT12=
EXTT13=
EXTT14=
PLAYORDER=
